<svg width="1473" height="1473" viewBox="0 0 1473 1473" fill="none" xmlns="http://www.w3.org/2000/svg">
<path fill-rule="evenodd" clip-rule="evenodd" d="M736.266 1472.7C1142.68 1472.7 1472.15 1143.24 1472.15 736.818C1472.15 330.4 1142.68 0.933594 736.266 0.933594C329.848 0.933594 0.380859 330.4 0.380859 736.818C0.380859 1143.24 329.848 1472.7 736.266 1472.7ZM233.656 369.927C158.436 472.796 114.033 599.622 114.033 736.819C114.033 874.85 158.978 1002.38 235.031 1105.58C255.221 1132.98 294.779 1133.83 318.844 1109.77C336.154 1092.46 339.112 1065.95 340.282 1041.5C341.294 1020.37 349.868 999.533 366.006 983.395C400.44 948.961 456.269 948.961 490.703 983.395C525.137 1017.83 525.137 1073.66 490.703 1108.09C474.543 1124.25 453.672 1132.83 432.511 1133.82C408.109 1134.96 381.662 1137.92 364.388 1155.19C340.336 1179.25 341.237 1218.79 368.666 1238.91C443.411 1293.73 530.847 1332.25 625.746 1349.27C667.992 1356.84 704.104 1322.24 704.104 1279.32L704.104 898.567C704.104 890.399 694.617 885.422 687.174 888.784C673.704 894.87 658.204 898.184 640.565 898.184C557.954 898.184 490.984 825.491 490.984 735.82C490.984 646.148 557.954 573.456 640.565 573.456C658.204 573.456 673.704 576.769 687.174 582.854C694.617 586.217 704.104 581.24 704.104 573.072L704.104 194.319C704.104 151.4 667.992 116.799 625.746 124.372C530.649 141.419 443.046 180.072 368.199 235.07C340.392 255.503 339.527 295.616 363.928 320.017C381.479 337.568 408.376 340.539 433.161 341.884C454.099 343.02 474.708 351.585 490.703 367.579C525.136 402.013 525.136 457.842 490.702 492.276C456.268 526.71 400.44 526.71 366.006 492.276C349.99 476.26 341.423 455.615 340.306 434.648C338.988 409.914 336.019 383.077 318.505 365.562C294.117 341.175 254.013 342.087 233.656 369.927ZM1238.47 1104.26C1218.91 1130.96 1180.41 1131.9 1157 1108.49C1140.22 1091.71 1137.3 1066.06 1136.5 1042.35C1135.77 1020.79 1127.18 999.453 1110.72 982.997C1076.29 948.563 1020.46 948.563 986.026 982.997C951.592 1017.43 951.592 1073.26 986.026 1107.69C1002.41 1124.07 1023.63 1132.66 1045.08 1133.46C1068.97 1134.34 1094.82 1137.28 1111.73 1154.18C1135.18 1177.64 1134.4 1216.17 1107.81 1235.99C1032.21 1292.36 943.361 1331.95 846.786 1349.27C804.54 1356.84 768.428 1322.24 768.428 1279.32V804.892C768.428 792.826 758.646 783.044 746.58 783.044C737.901 783.044 730.211 788.29 725.756 795.738C707.662 825.986 676.266 845.994 640.565 845.994C584.508 845.994 539.065 796.667 539.065 735.82C539.065 674.972 584.508 625.646 640.565 625.646C677.054 625.646 709.045 646.546 726.934 677.919C731.169 685.347 738.72 690.595 747.27 690.595C758.955 690.595 768.428 681.123 768.428 669.438V194.319C768.428 151.4 804.54 116.799 846.786 124.372C943.325 141.678 1032.14 181.25 1107.73 237.584C1134.25 257.352 1135.04 295.781 1111.64 319.172C1094.79 336.027 1069.02 338.957 1045.2 339.81C1023.7 340.58 1002.44 349.169 986.026 365.579C951.592 400.013 951.592 455.842 986.026 490.276C1020.46 524.71 1076.29 524.71 1110.72 490.276C1127.2 473.798 1135.79 452.422 1136.5 430.835C1137.28 407.173 1140.2 381.585 1156.94 364.845C1180.29 341.494 1218.69 342.421 1238.23 369.043C1313.84 472.068 1358.5 599.228 1358.5 736.819C1358.5 874.26 1313.94 1001.29 1238.47 1104.26Z" fill="#D9D9D9"/>
</svg>
